<svg xmlns:svg="http://www.w3.org/2000/svg" xmlns="http://www.w3.org/2000/svg" version="1.1" x="0" y="0" viewBox="0 0 364.7 277.1">
  <g transform="translate(-115,-282.89)">
    <path d="m429 368.3 14.7-12.4c11.2 9.8 25.4 20.3 24.8 36.3-0.6 15.9-11.6 22.7-25 23.2-15.2 0.6-27-9.5-26.7-24.2 0.2-8.7 4.1-16 12.3-22.9l0 0zm-31.1-2.8c8.5-10.7 12.3-21 13.7-34.5 4.1 12.9-2.3 37-15.5 53.2-10.7 13.1-28.1 17.3-41.6 26.7-7.7 5.3-10.9 10.8-11.3 19.1-4.3-5.6-5.9-25.1 5.8-31.6 20.4-11.3 33.5-13.3 49-32.9l0 0zm-13.2-6.2c18.9-14.9 21.3-30.3 19.4-46.9 7 14.4 4.7 32.6-9.4 50.9-14.3 18.7-32 21.8-47.7 31.5-11.3 7-14.2 20.9-9.1 34.4-25.5-19.7-15.9-41.3 11.6-50.8 15.1-5.2 22.5-9 35.2-19l0 0zm5-57.5c18.6 12.8 13.8 38.4-7.3 55.3-9 7.2-27.2 15.6-34.2 17.6-28.3 8-40.8 32.5-17 53.5-40.4-19.9-25.4-59.3 6.6-65.7 19.1-3.8 76.3-19 51.9-60.7l0 0zm-16.8 13.8c9.2-2.7 10.6-8.3 10.9-15.2 15.8 16.2 6.6 39-13.7 47.2-14.6 6-19.3 7.3-34.2 10.8-34.8 8-46.8 42.3-18.1 66.7-40.8-9.4-36.8-58.6-4.1-72 12.5-5.1 31.8-9.4 47.7-11.3 10.4-1.3 19.6-14.9 11.5-26.2l0 0zm-12.5-16.5c-3.1 4.1-5.2 7.6-9.9 10-2.2 1-4.1 1.5-6.5 1.4-3.5-0.6-5.1-2.2-5.4-5.5 0.2-2.1 0.7-3.5 1.9-5.2-6.3 0.3-12.6 0.5-18.9 0.7 0.8 4.4 1.6 8.7 2.4 13.1 5.2-3.5 10.3-4.9 15.5-3.3 6.3 1.9 8.8 5.7 9.2 10.7 0.3 3.6-1.4 6.6-4.3 8.6-7.4 5.1-13.1 3.6-18.5 2.2 0.1 2.1 0.3 4.2 0.4 6.3 2.6-1.5 6.9-2.7 14.5-1.6 5.7 0.8 11.3 2.7 16.1 2.1 5.9-0.9 11.1-3.3 13.5-7.7 5.2-9.3-0.9-13.8-7.7-17 5.9-0.8 12.8-0.9 15.5-5.1 2.6-4 2.5-8.2-3.5-9.3-4.4-0.9-10.7-1.2-14.2-0.6l0 0zm-18.8 5.3c0.3-1.8 1.5-3.3 2.8-4.7 3.6-0.4 9.9-0.7 12.4-0.7-2.3 3-3.7 5.5-7.6 7.5-3.9 2-8.2 1.4-7.6-2.1l0 0zm-1.6-17c0.8 3.3 1.6 6 2.4 9.2 11.5-1.3 24.8-1.1 40.7 0 1-2.6 2.1-5.2 3.1-7.9-1.6-0.1-3.1-0.2-4.7-0.2-5.1 7.1-10.5 6.5-16.2-0.7-1.4 0-2.7 0-4.1-0.1-4.1 7.6-13.6 7.9-17.6-0.7-1.3 0.1-2.5 0.2-3.8 0.2l0 0zm-168.7 60.6-49.9 198.7 9.1-8.4 22.6-94.4 15-8 16.2-71.2-2.6-12.3c-3.8-1-7.2-2.3-10.4-4.4l0 0zm67.3 153.2c4-4.8 10-9.1 16.3-9.6 11.4-0.8 17.2 8.6 20.1 17.7 2 6.3 6.1 15.6 13.9 15.8 10.2 0.3 12.1-8.9 11.2-17.1-0.9-8.4-3.4-13.8-7.3-21.4-4.4-8.6-10.8-18.7-10.5-29.1 0.3-9.5 7.9-15.4 16.1-18.4 9.8-3.6 20.2-5.8 30.3-8.5-6.9-1.3-13.8-2.9-20.7-5.4-4.5 5.8-11.2 9.1-19.6 10.6 3.2-19.7-32-5.3-34.9 6.2-2.6 10.1-5.7 13.5-19.6 13.3 6.3-5.5 7-9.8-0.6-11.1-2.2-0.4-4.5 0.1-6.8 0.2 3.9 19.2 8.1 37.6 12 56.8l0 0zm3 37.1c-0.7 0.5-1.5 1-2.3 1.4l3.6-15.3c-3.9-0.5-6.7 0.8-8.6 1.8 1.2-3.4 4.2-8.6 6.3-12.3-2.1-0.6-5.8-1.3-9.2-1 1.2-2.6 2.6-5.2 4.1-7.5L223 444.2c-5.1 0.1-9.4-2.2-11.9-7.2-3.6-7-6.7-12.9-10.3-14.8l3.1 14.1 11.5 8c6.4 31.5 12.8 62.9 19.2 94.4l8.6 7.6-1.7-8 0 0zM348.5 438c0.5-0.7 0.9-1.4 1.4-2.2 8.8 3.7 16.2 11.7 21.3 27.3-2.4-0.4-4.9-0.6-7.3-1.2-2.6-0.6-4.1-2-3.7-5.4 1-10.1-3.7-15.8-11.6-18.5l0 0zM473.4 313.1c-3.6-6-8.7-6.8-13.3-7.8 11.3 13.2 3.6 25.1-6.9 34.1-9.3 8-20.5 16.4-27.8 23.2-11.1 10.3-15.5 17.2-15.7 28.5-0.4 20.4 10.6 31.9 34.4 31.1-17.3 10.2-34.8 14.2-51.2 9.2-12.7-3.8-17.1-17.1-10.3-31.3-7.6 3.7-19 8.7-25.7 13.5-4.7 3.4-8.3 7.5-9.4 11.9-1.2 4.7 2.1 6 6.2 7.8 10.4 4.3 18.1 14 21.2 30l14.9 26.8c5.8 10.5 13.3 10 24 7.3 12.9-3.3 21.5 1.6 21.2 15.6-0.3 12.4-10.2 19-23.2 15.7-8.5-2.1-14.8-6-21.8-13-10.8-10.8-20.7 2.8-23.5 14.1l3.4 0.6c1.7-8.9 6.2-12.7 11.7-12.8 5.1 0 8.2 2.4 11.1 6.7-5.6-5-13.4-7.4-17.3 1.6-2.2 5.1-3 10.2-3.5 15.9l6.1-0.5c-0.8-11.9 8-18.5 18.9-13.2 4.6 2.5 8.3 5.5 12.3 9-3-1.7-8.2-4.6-13.1-6.4-10.2-4.4-15.4 4.7-13.9 14.8 5.1-4.1 8.2-4.3 12.5-0.8 10.3 8.3 27.6 18.2 37 0.9 5.6-10.3 18.6-7.4 18 5.8 12.8-6.4 8.5-26.7 6.2-38-1.8-9.9-2.6-19.8-1.5-29.7 4-2.6 7.1-5.7 9.4-11-12.3 1.8-27.5 3.2-39.9 2.8-8.6-0.3-15.5-2.2-18-8.8-1.8-4.7-2.8-9.5-2-14.3 0-5.8-2.7-10.8-7.3-15.2 24.5 0.9 49.9-5.8 68.7-21.4 6.7-5.5 10.7-13 10.7-22 0-17.6-12.8-32.3-26-42.3-1.1 0.9-2.3 1.9-3.4 2.8 11.8 8.5 25.4 21.2 25.7 38 0.1 4.7-1.2 9.4-4 13.9-4.8 7.7-12.7 12.5-25 12.8-13.9 0.3-31.2-9-29.9-27.7 0.8-11.8 6.5-19 13.6-25l28.2-23.8c7.6-6.4 9.8-11.4 13.5-20.2 3.6-0.7 8-3.4 4.6-9.1l0 0zm-35.7 34.7 5.5-4.2c-14.3-14.4-15.1-27.5-8-38.8-5.4 1.8-10.8 4.3-13.6 7.4-5 5.5 0 8.1 5 9.9 1.5 10.3 5.4 18.6 11.1 25.6l0 0zm-94.9 91.3c1-1.6 2-3.2 3.1-4.8-6.2-2.7-12.4-1.2-18.6 0.4-9 2.3-18.4 4.2-27.6 7.7-14.5 5.5-15.1 14.4-12.2 24.9 3.4 7.8 6.5 13.8 9 18.6 4.7 9.1 6.5 15.5 7 20.4 1.4 14.2-3.2 19.9-10.2 21.8-10.1 2.4-16.3-4.2-20.7-14.8-1.8-6.4-4.1-12.5-9.7-16.4-10.5-6-20.4 3.7-25.8 12 1.7 0.5 3.9 0.9 5.7 1.4 5.3-9.7 16.9-18.3 23.2-0.9-3.9-5.7-9.5-10.2-15.2-4.3-4.2 4.4-6.7 10.2-9.8 15.7 1.4 0.1 2.8 0.1 4.1 0.2 1.7-4.8 3.9-8.3 8-10.7 2.4-1.4 6.1-1.8 10.3 1.1 2.7 1.8 7.4 9.9 10 16.4-5.6-7.8-13.8-22.2-23.4-10.6-3.4 4.2-4.1 9.9-5.4 15.2 11.7-7.3 13.5 1.1 19.3 7.3 6.9 7.5 23.8 15.3 29.7 6.8 2.5-3.7 6.3-5.8 10-6 4.4-0.2 10 2.9 8.4 8 6.4-0.6 11.5-5.3 13.7-19 0.6-12.9 1.1-25.8 1.7-38.7 4.7-1.4 9-3.8 11.9-9.6-6.9 0.8-13 0.4-17.3-2.6-4.6-3.2-4-8.5-1.5-11.4 4-4.9 10.6-5.7 18.6-3.7 11.2 2.8 22.9 5.2 34.3 5.5-0.3-0.6-0.3-1.8-1-1.9-6.1-0.8-11.1-1.1-13.4-3.1-2.5-2.2-3-4.6-2.6-7.2 1.7-10.2-4.2-15.1-13.5-17.4l0 0zm-146.7-44.4-2-1c4-3.9 6.3-5.4 10.2-6.7 6.5-2.1 12.4 0.4 14.4 5.2 2.9 6.9 1.4 14.9 2.8 22.3 2.1 10.9 10 12.3 19.6 4.6 16.6-13.2 30-25.5 42.2-32.8-1.6 16.5 5.6 30.7 20.8 37.9-3.2 2.9-7 5.2-11.9 6.7-0.9-17.7-39.2-4.5-42.5 10.1-1.7 7.4-4.3 9.3-6.9 9.2 2.4-4.8-0.5-8.8-5.5-9.8-2.8-0.6-5.6-0.5-8.5 0-5.3 0.9-12 0.1-15-5.9-5.5-11.3-10.4-19.9-18.8-18.6 0.5-3.1 1.1-6.5 3.6-8.9 3-2.9 6.4-2.6 10.2 1 2.8 2.7 5.5 7.1 8.2 11.7-2.6-7.9-3.4-10.3-6.6-14.6-4.3-5.7-11.6-4.9-15.7 0.3l-3.6-1.5c6.6-6.8 17.8-19 24.6-1.4-0.1-5.5-3.9-12.2-9-12.2-3.4 0-6.1 0.9-10.7 4.3l0 0zm39.6-14.6c-7.2 1.7-14.4 2.5-19.6-3.7l-2-2.8c4.7 0.8 6.2-0.9 6.3-2.9 0.3-4.2-5.7-7.1-10.8-9.5l4.3 22.3c5.2 2.4 9.2 6.7 9.9 17.7 0.2 4 0.5 8 1.3 12 1.9 9.2 7.3 7.5 13.1 2.8 9.3-7.5 18.5-15 27.8-22.4 0.6-7.2-0.5-12.9-12.1-14.9-7.3-1.3-10.3-0.1-18.2 1.3l0 0zm-0.3-4c25.1-5.6 36 4.4 33.9 15.2 4.9-3.2 11.1-8 15.1-10.9 2-8.6 6.4-14.5 13.3-21.6-12-2.6-23-2.7-35.8-2.2-19.7 0.7-32.9-3.1-37.5-13.2-3.9-8.7-2.9-17.8-0.4-31.3 3-15.8-11.7-20.6-27.8-9.3l1.9 1.9c11.6-8.4 22.5-2.7 20.1 9.9-0.6-17.8-22.7-6.9-28.1 1 0.9 0.8 1.9 1.7 2.8 2.5 3.6-4.7 7.8-8.1 12.9-8 9.4 0.1 10.1 12 7 19.2 0.1-5.7-0.3-10.9-3.1-13.8-6.5-6.7-16.7 6.3-18.9 11.9 13.5-3.9 14.2 13 15.1 22.2 0.5 4.7 2.8 7.3 5.7 8.2 4.1 1.4 10.6 4.2 12.4 9.1 1.7 4.7-0.1 8-3.2 9 4.7 2.6 7.4 1.7 14.5 0.1l0 0zm-47.5-70.7c2.7 0 5 0.2 7.3 1.3-3.5 2.8-6.1 5.6-9.6 10 1.8 0.9 3.7 2.4 5.2 3.8-1.7 3.4-3.3 5.3-5.7 13.1 3.8-2.3 13.5-5.9 14.1 1.4-3 2.6-7 4.3-11.4 4.3-9.5 0-17.2-7.6-17.2-16.9 0-9.3 7.7-16.9 17.2-16.9l0 0zm-1.7 67.3c1.4 6.6 2.9 13.2 4.3 19.8-0.6 0.8-1.4 1.8-2.3 2.9 1.8 0.5 3.6 1.1 5 2-2.1 1.9-6.1 6.4-8.6 9.6 3.5-0.1 6 0.7 8.2 1.7-1.7 3.9-3.1 12.7-2.7 16.6 1.5-2.9 3.1-5.4 6.3-5.4l3.9 18.9 12.1 8.3c6.2 31.2 12.4 62.4 18.6 93.6 6.3 6.4 12.7 12.9 19 19.3-1.6-8.2-3.1-16.5-4.7-24.7 9-5.5 11.2 1.9 16 7.1 8.3 8.9 25.5 17.1 34.9 6.6 2-2.2 3.7-4.1 7.1-4.1 4.2-0.1 6.4 4.4 1.1 9.8 21.9-1.6 24.1-14.1 24.6-25.2l1.4-34.8c6.2-4.6 12.4-9.2 15.4-18.3-7 1.6-13.5 1.4-19.9 0.2-3.6-1.4-5.3-4.7-2.9-7.3 5.6-6 13.9-2.9 22.1-1.1 9.5 2.1 20.7 4.2 30.5 4.7l11.1 19.2c6.3 13.4 15.6 11.8 27.6 9.2 11.3-2.4 16.3 1.9 16.1 11.7-0.2 9.3-6.8 14.4-18.3 12.1-7.1-1.4-13.4-5.4-20.2-11.7-15.9-14.8-29.2 5.7-30.9 20.6l7.3 0.7c-0.7 3.1-1 8.5-1.2 13.4 5.4-1.3 7.9-1.4 11.1-1.8 0.4 2.2 1.1 6.6 1.5 10.3 2.5-5.7 7-12.6 13.1-8.5 11.7 8 30.5 19.5 40.8 1.4 6.3-11.2 15.3-2 9.3 7.9 4.6 0 8.9-1.6 13.4-5.5 6.6-5.8 7.9-17.3 3.8-35.4-2.2-9.4-2.8-19.5-1.8-30.4 5.4-4 9.8-9.3 10.6-19.3-14.3 3.2-29.5 5.1-45.8 4.1-8.4-0.5-15.2-3.1-14.5-16.6 0.2-4.2-1.1-8.5-3.2-12.7 27.4-1.6 73.9-16.3 74.3-47.3 0.3-20.6-14.4-33.9-27-44.7 8.7-6.9 15.3-14.2 18.3-24.6 7.3-0.7 8.8-8.2 5.5-13.6-4.6-7.5-16.2-10.7-24.4-10.1 15.3 15.5 9.2 28.3-0.8 36.3l-5.5 4.3c-12.2-11.3-16.7-24.4-4.5-41.2-9 0.5-16.7 3.2-22.2 9.1-6.5 7.1-4.4 12.8 5 15.9 2.5 10.5 5.6 17.1 11.2 23.9l-12.4 10.7c-12.6 10.9-16.8 21.1-16.9 31.1-0.2 19.6 9.1 28.8 22.2 33.7-5.1 3.1-11.7 4.9-19.5 5-14.7 0.3-26.1-4.2-24.9-19.7 0.6-7 5.8-13 13.4-22 23-27.3 31.5-75.3-10-90.9 1.4-4.1 2.9-8.2 4.3-12.4-4.5-0.1-9.1-0.1-13.6-0.2 0 9.2-8.5 6.4-8.4-0.2-3.9-0.2-7.8-0.5-11.6-0.7-0.3 9.9-11.3 7.4-10-0.9-4.5 0.1-9.1 0.1-13.6 0.2 1 4.5 2 9 3 13.4-4.3 0.2-16.8 0.7-20.9 0.6 1.8 6.8 3.7 17.1 5.1 23.9 7.5-13.2 22.4-9.6 22.9-1.1-6.7-1.1-13.5-0.9-20.1 1.4-8.6 3-16.9 4.1-25.4 3-12.2-1.5-13.5-7.5-13.8-14.1-3.3 4.3-3.7 8.7-2.5 12.9 1.5 5.3 7.9 8.1 17.7 7.3 7.7-0.6 15.5-3.1 24-6.1 11.8-4.3 19-2.8 19.1-0.1 0.1 3.2-11.4 7.9-21.8 1.9 0 6.1 0 12.2 0 18.3 10.6-7.4 16.7-5 23.3-3.6-16.3 2.2-35.1 8.3-43.5 14.6-12.4-3.5-24.9-4-39.9-3.1-17 1-28.7-1.4-33.8-10.4-3.6-6.3-2.8-17.9-0.4-29.6 1.9-9.2-1.8-15-7.2-17.4-5.5-2.5-11.8-1.5-17.5 0.6-4.6-2.7-9.1-3.7-14.9-3.7-16.9 0-30.7 13.7-30.7 30.5 0 9.2 4.2 17.5 10.7 23.1L115 557.2 133.6 540.2 156.1 446.2l15-8 15.2-65.5 0 0zm19.5-12.2 4.2 22.3c-6.5-0.4-11.4 2.2-16 6.6l-9.1-40.3c-13.6-1.5-24.2-12.9-24.2-26.8 0-14.8 12.2-26.9 27.2-26.9 3.8 0 7.3 0.8 10.6 2.1-2.3 1.5-4.7 3.1-7 4.6-1.2-0.2-2.3-0.3-3.6-0.3-11.4 0-20.7 9.2-20.7 20.5 0 11.3 9.3 20.5 20.7 20.5 4.3 0 8.3-1.3 11.7-3.6 4.2 6.4 0.9 14.1 6.2 21.3l0 0z" style="fill-rule:evenodd;fill:#0079c2"/>
  </g>
</svg>
